<svg xmlns="http://www.w3.org/2000/svg" viewBox="0 0 320 420" fill="none">
  <defs>
    <linearGradient id="pch" x1="88" y1="90" x2="232" y2="376" gradientUnits="userSpaceOnUse">
      <stop stop-color="#EBD8B8"/>
      <stop offset="0.5" stop-color="#D6BB90"/>
      <stop offset="1" stop-color="#B0906A"/>
    </linearGradient>
  </defs>
  <rect x="100" y="62" width="120" height="24" rx="6" fill="#C2A379"/>
  <path d="M100 78h120v10H100z" fill="#A98C64" opacity="0.6"/>
  <path d="M88 86h144c5 0 9 4 9 9v258c0 9-7 16-16 16H95c-9 0-16-7-16-16V95c0-5 4-9 9-9z" fill="url(#pch)"/>
  <rect x="99" y="106" width="18" height="238" rx="9" fill="#ffffff" opacity="0.32"/>
  <rect x="205" y="120" width="9" height="204" rx="4.5" fill="#8E7350" opacity="0.2"/>
  <rect x="104" y="160" width="112" height="140" rx="14" fill="#FFFDF8" opacity="0.95"/>
  <text x="160" y="206" font-family="Arial, Helvetica, sans-serif" font-size="21" font-weight="700" letter-spacing="3" fill="#8A6C46" text-anchor="middle">OROS</text>
  <rect x="126" y="220" width="68" height="5" rx="2.5" fill="#E0CDAD"/>
  <rect x="136" y="234" width="48" height="5" rx="2.5" fill="#EFE2CB"/>
  <path d="M160 254c10 5 12 16 5 22-7 6-17 3-18-5 6 1 12-7 13-17z" fill="#C7A87C"/>
  <circle cx="160" cy="70" r="6" fill="#F7F1E6"/>
</svg>
